<svg width="574.198242" height="401.687744" viewBox="0 0 574.198 401.688" fill="none" xmlns="http://www.w3.org/2000/svg" xmlns:xlink="http://www.w3.org/1999/xlink">
	<desc>
			Created with Pixso.
	</desc>
	<defs/>
	<g opacity="0.300000">
		<path id="Vector 2" d="M0.5 401.188L66.8601 401.188L72.6306 392.54L145.723 392.54L150.532 401.188L564.081 401.188L573.698 392.54L573.698 0.501953L0.5 0.5L0.5 401.188Z" stroke="#979797" stroke-opacity="1.000000" stroke-width="1.000000"/>
		<path id="Vector 4" d="M0.943359 251.883L0.42334 251.883L0.42334 250.883L0.943359 250.883L0.943359 251.883ZM573.678 250.883L574.198 250.883L574.198 251.883L573.678 251.883L573.678 250.883Z" fill="#D8D8D8" fill-opacity="0" fill-rule="nonzero"/>
		<path id="Vector 4" d="M0.92334 251.383L573.698 251.383" stroke="#979797" stroke-opacity="1.000000" stroke-width="1.000000" stroke-linecap="square"/>
		<path id="Vector 3" d="M0.867188 126.286L0.347168 126.286L0.347168 125.286L0.867188 125.286L0.867188 126.286ZM573.678 125.286L574.198 125.286L574.198 126.286L573.678 126.286L573.678 125.286Z" fill="#D8D8D8" fill-opacity="0" fill-rule="nonzero"/>
		<path id="Vector 3" d="M0.847168 125.786L573.698 125.786" stroke="#979797" stroke-opacity="1.000000" stroke-width="1.000000" stroke-linecap="square"/>
		<path id="Vector 5" d="M276.81 0.52002L276.81 0L277.81 0L277.81 0.52002L276.81 0.52002ZM277.81 251.363L277.81 251.883L276.81 251.883L276.81 251.363L277.81 251.363Z" fill="#D8D8D8" fill-opacity="0" fill-rule="nonzero"/>
		<path id="Vector 5" d="M277.31 0.5L277.31 251.383" stroke="#979797" stroke-opacity="1.000000" stroke-width="1.000000" stroke-linecap="square"/>
	</g>
</svg>
