<svg width="18.024902" height="14.000000" viewBox="0 0 18.0249 14" fill="none" xmlns="http://www.w3.org/2000/svg" xmlns:xlink="http://www.w3.org/1999/xlink">
	<desc>
			Created with Pixso.
	</desc>
	<defs/>
	<g opacity="0.300000">
		<path id="twitter" d="M18.0249 1.65747C17.3501 1.94312 16.634 2.13062 15.9011 2.21387C16.6636 1.77588 17.25 1.08398 17.5259 0.258057C16.8 0.669922 16.0059 0.959961 15.1777 1.11572C14.4788 0.402344 13.5015 -0.00170898 12.4788 0C10.4375 0 8.78052 1.58203 8.78052 3.53345C8.78052 3.81079 8.81323 4.08105 8.8772 4.33911C5.80322 4.19165 3.0791 2.78516 1.25488 0.646973C0.936279 1.16821 0.754639 1.77588 0.754639 2.42358C0.754639 3.64917 1.40723 4.73096 2.39917 5.36475C1.81201 5.34766 1.2373 5.19604 0.724121 4.92285L0.724121 4.96777C0.724121 6.67944 1.99878 8.10791 3.6897 8.43311C3.14526 8.57422 2.57422 8.59473 2.02002 8.49365C2.49072 9.89771 3.85693 10.9192 5.47437 10.949C4.20898 11.8953 2.61475 12.4612 0.881836 12.4612C0.587158 12.4609 0.292725 12.4446 0 12.4119C1.63647 13.4143 3.58057 14 5.6687 14C12.4707 14 16.1897 8.61401 16.1897 3.94336C16.1897 3.79077 16.1897 3.63794 16.1782 3.48633C16.9019 2.98584 17.5269 2.3667 18.0239 1.65747L18.0249 1.65747Z" fill="#FFFFFF" fill-opacity="1.000000" fill-rule="nonzero"/>
	</g>
</svg>
