<svg width="21.008057" height="16.000977" viewBox="0 0 21.0081 16.001" fill="none" xmlns="http://www.w3.org/2000/svg" xmlns:xlink="http://www.w3.org/1999/xlink">
	<desc>
			Created with Pixso.
	</desc>
	<defs/>
	<path id="twitter" d="M21.0081 1.89502C20.2351 2.2168 19.4041 2.43213 18.533 2.52979C19.4231 2.02979 20.106 1.23779 20.428 0.295898C19.594 0.757812 18.6721 1.09424 17.6899 1.27588C16.905 0.490234 15.7839 0 14.5449 0C12.165 0 10.2339 1.80908 10.2339 4.03906C10.2339 4.35596 10.272 4.66504 10.3459 4.95996C6.76392 4.79102 3.58789 3.18311 1.46191 0.740234C1.09106 1.33691 0.878906 2.02979 0.878906 2.771C0.878906 4.1709 1.63989 5.40918 2.7959 6.13281C2.09009 6.11084 1.42603 5.93018 0.843994 5.62695C0.843994 5.64502 0.843994 5.66016 0.843994 5.6792C0.843994 7.63623 2.3291 9.26807 4.30103 9.63916C3.93994 9.73096 3.55811 9.77881 3.16602 9.77881C2.88794 9.77881 2.61792 9.75488 2.35498 9.70898C2.90308 11.312 4.49512 12.481 6.3811 12.5142C4.90601 13.5972 3.0481 14.2422 1.02808 14.2422C0.679932 14.2422 0.336914 14.2231 0 14.186C1.90698 15.3311 4.1731 16.001 6.60693 16.001C14.5349 16.001 18.8701 9.84521 18.8701 4.50781C18.8701 4.33203 18.865 4.15918 18.8569 3.98486C19.699 3.41504 20.4299 2.7041 21.0081 1.89502Z" fill="#FFFFFF" fill-opacity="1.000000" fill-rule="evenodd"/>
</svg>
