<svg width="24.994629" height="17.994629" viewBox="0 0 24.9946 17.9946" fill="none" xmlns="http://www.w3.org/2000/svg" xmlns:xlink="http://www.w3.org/1999/xlink">
	<desc>
			Created with Pixso.
	</desc>
	<defs/>
	<path id="Vector" d="M19.8103 0L5.1897 0C2.32642 0 0 2.36719 0 5.28076L0 12.7139C0 15.6328 2.32642 17.9946 5.1897 17.9946L19.8047 17.9946C22.6736 17.9946 24.9946 15.6274 24.9946 12.7139L24.9946 5.28076C25 2.36719 22.6736 0 19.8103 0ZM16.2961 9.36426L9.45776 12.6807C9.27344 12.769 9.06714 12.6362 9.06714 12.4268L9.06714 5.58447C9.06714 5.37451 9.28418 5.24219 9.46313 5.33594L16.3015 8.86182C16.5076 8.9668 16.5022 9.26465 16.2961 9.36426Z" fill="#FF1313" fill-opacity="1.000000" fill-rule="nonzero"/>
</svg>
