<svg width="30.041748" height="30.003876" viewBox="0 0 30.0417 30.0039" fill="none" xmlns="http://www.w3.org/2000/svg" xmlns:xlink="http://www.w3.org/1999/xlink">
	<desc>
			Created with Pixso.
	</desc>
	<defs/>
	<path id="Vector" d="M9.927 2.65335C11.5112 3.27457 13.0427 4.09503 14.4861 5.0972C14.6504 5.20853 14.8381 5.26715 15.0259 5.26715C15.2136 5.26715 15.4014 5.20853 15.5657 5.0972C17.0093 4.09503 18.5405 3.26871 20.1248 2.64749C20.4827 2.50684 20.7234 2.15521 20.7175 1.7684C20.7175 1.38162 20.4768 1.03586 20.113 0.901062C16.9446 -0.300354 13.1072 -0.300354 9.94458 0.901062C9.58667 1.03586 9.34033 1.38748 9.34033 1.7684C9.34033 2.14935 9.56323 2.5127 9.927 2.65335Z" fill="#FFB548" fill-opacity="1.000000" fill-rule="nonzero"/>
	<path id="Vector" d="M23.5347 2.65866C23.2354 2.45355 22.854 2.43597 22.5312 2.61765C20.7769 3.62564 19.0813 4.78018 17.4792 6.05191C17.2681 6.22186 17.1392 6.47388 17.1272 6.74344C17.1155 7.01303 17.2212 7.27676 17.4148 7.46429C20.7358 10.6231 25.3359 20.3105 26.3921 24.7646C24.1038 20.8966 18.999 11.7952 15.6604 8.68329C15.3025 8.34924 14.7393 8.34924 14.3813 8.68329C11.0369 11.7952 5.94971 20.9025 3.66138 24.7763C4.71753 20.3223 9.30591 10.6231 12.627 7.46429C12.8264 7.27676 12.9321 7.01303 12.9204 6.74344C12.9084 6.47388 12.7795 6.22186 12.5684 6.05191C10.9663 4.78018 9.26489 3.62564 7.51636 2.61765C7.20532 2.43597 6.81226 2.45355 6.51294 2.65866C2.43506 5.46585 0 10.0781 0 15.0009C0 18.5993 1.29663 22.0687 3.66138 24.7763C6.4895 28.0933 10.626 30.0038 15.021 30.0038C19.4158 30.0038 23.5581 28.0992 26.3921 24.7704C28.7451 22.0746 30.0417 18.6051 30.0417 15.0009C30.0417 10.0781 27.6067 5.46585 23.5347 2.65866Z" fill="#FFB548" fill-opacity="1.000000" fill-rule="nonzero"/>
</svg>
